<?xml version="1.0" standalone="no"?>
<!DOCTYPE svg PUBLIC "-//W3C//DTD SVG 20010904//EN"
 "http://www.w3.org/TR/2001/REC-SVG-20010904/DTD/svg10.dtd">
<svg version="1.0" xmlns="http://www.w3.org/2000/svg"
 width="700.000000pt" height="700.000000pt" viewBox="0 0 700.000000 700.000000"
 preserveAspectRatio="xMidYMid meet">
<metadata>
Created by potrace 1.14, written by Peter Selinger 2001-2017
</metadata>
<g transform="translate(0.000000,700.000000) scale(0.100000,-0.100000)"
fill="#000000" stroke="none">
<path d="M1425 6989 c-378 -54 -681 -204 -946 -468 -237 -237 -376 -495 -451
-834 l-23 -102 0 -2085 0 -2085 23 -104 c141 -651 604 -1122 1257 -1277 l120
-29 2090 0 2090 0 103 22 c292 64 560 197 763 380 266 240 430 518 515 878
l29 120 0 2090 0 2090 -23 102 c-75 339 -215 598 -451 833 -217 216 -451 353
-729 426 -215 56 -130 54 -2302 53 -1103 -1 -2032 -5 -2065 -10z m635 -1202
c92 -43 180 -150 465 -567 286 -420 312 -467 301 -550 -9 -65 -56 -156 -119
-230 -164 -191 -227 -379 -179 -537 38 -124 89 -183 626 -719 541 -542 590
-584 720 -619 156 -42 323 16 527 182 134 109 231 140 329 106 79 -27 820
-536 915 -628 132 -128 154 -217 92 -370 -49 -120 -127 -233 -222 -323 -248
-235 -616 -280 -1068 -131 -685 225 -1571 907 -2282 1756 -602 719 -925 1402
-890 1882 23 323 186 565 480 711 147 74 210 81 305 37z"/>
</g>
</svg>
